<svg xmlns="http://www.w3.org/2000/svg" data-name="Layer 1" viewBox="0 0 92 62">
  <path fill="#717171" d="M36.5 62c-2.5 0-3.1-2.2-4.4-30.3-.4-8.5-.9-19.4-1.7-25.2-.5 4-.9 10.4-1.2 15.5-1.1 19.2-1.7 24-4.7 24-3.2 0-3.9-4.6-4.6-9.4-.3-2.2-.8-5.8-1.5-6.6-.7.2-1.3 2.2-1.7 3.6-.7 2.5-1.5 5.4-4.2 5.4a4.58 4.58 0 0 1-3.8-1.9A2.31 2.31 0 0 0 6.5 36h-5a1.5 1.5 0 0 1 0-3h5a5.08 5.08 0 0 1 4.4 2.1c.5.6.7.9 1.6.9.5-.2 1.1-2.2 1.3-3.2.8-2.6 1.7-5.8 4.7-5.8s3.7 4.2 4.4 9.1c.3 1.8.7 5 1.3 6.3 1-3.2 1.6-13.6 2-20.7C27.2 4.1 27.7 0 30.4 0s3.2 2.5 4.6 31.5c.4 7.8.9 17.7 1.5 23.4.6-4.6 1-11.8 1.3-17.5 1.4-22.1 2-25.4 4.7-25.4s3.3 4.5 4.2 17.5c.4 5.4 1 13.2 1.9 15.9.6-1.7 1-5.7 1.3-8.3.7-6.8 1.2-12.1 4.6-12.1s3.8 4.1 4.3 8c.3 2.1.7 6 1.7 6s1.4-2 1.8-4.6c.5-2.9 1.1-6.4 4.2-6.4s4 3 4.6 5.2c.4 1.2.8 2.8 1.4 2.8.9 0 1.3-.6 2.1-2s1.7-3 3.9-3a5.17 5.17 0 0 1 3.4 1.2 3.67 3.67 0 0 0 2.6.8h6a1.5 1.5 0 0 1 0 3h-6a6.3 6.3 0 0 1-4.3-1.4 2.52 2.52 0 0 0-1.7-.6c-.4 0-.7.5-1.3 1.5-.8 1.4-2 3.5-4.7 3.5s-3.7-2.9-4.3-4.9-1-3.1-1.7-3.1-1 2.6-1.2 3.9c-.5 3-1.2 7.1-4.8 7.1s-4.2-4.6-4.7-8.6c-.2-1.7-.6-4.7-1.2-5.3-.9 1.1-1.4 6.2-1.7 9.3-.7 6.7-1.2 11.6-4.4 11.6s-3.7-5-4.8-19.3c-.3-4-.7-9.1-1.2-12.2-.7 4.5-1.2 13.3-1.7 20.1C39.6 58.8 39 62 36.5 62z"/>
</svg>
